<svg xmlns="http://www.w3.org/2000/svg" width="51" height="52" viewBox="0 0 51 52">
    <path fill="#fff" fill-rule="evenodd" d="M25.784 32.53a7.053 7.053 0 0 1-7.057-7.048c0-3.894 3.16-7.05 7.057-7.05a7.053 7.053 0 0 1 7.057 7.05c0 3.893-3.16 7.049-7.057 7.049m0-17.38c5.711 0 10.34 4.626 10.34 10.33 0 5.706-4.629 10.33-10.34 10.33s-10.341-4.624-10.341-10.33c0-5.704 4.63-10.33 10.341-10.33zM9.008 28.553c0 .445-.187.87-.515 1.17l-4.559 4.184-2.396-2.617 3.442-3.145c.304-.278.477-.67.477-1.081v-2.724c0-.432-.191-.843-.522-1.121L.953 19.873a2.668 2.668 0 0 1-.534-3.477l5.44-8.533a2.674 2.674 0 0 1 3.476-.94l3.812 1.957c.373.191.81.214 1.2.063l2.463-.952c.523-.202.885-.686.932-1.244l.36-4.3A2.671 2.671 0 0 1 20.764 0h10.01c1.38 0 2.533 1.05 2.66 2.424l.396 4.262c.039.417.254.797.591 1.045l2.023 1.487c.396.291.913.364 1.375.194l4.808-1.767 1.226 3.329-6.543 2.405a1.593 1.593 0 0 1-1.501-.219l-4.598-3.43a1.94 1.94 0 0 1-.773-1.372l-.46-4.811h-8.371l-.501 5.465a2.114 2.114 0 0 1-1.394 1.797l-5.349 1.912a2.118 2.118 0 0 1-1.674-.108l-4.264-2.174-4.497 7.053 4.406 3.797c.427.369.673.905.673 1.469v5.794zm40.922 2.654a2.668 2.668 0 0 1 .675 3.533l-5.238 8.521a2.674 2.674 0 0 1-3.481.987l-3.856-1.944a1.468 1.468 0 0 0-1.55.142l-2.1 1.598a1.464 1.464 0 0 0-.575 1.055l-.325 4.269a2.671 2.671 0 0 1-2.621 2.466L20.733 52a2.672 2.672 0 0 1-2.687-2.275l-.769-5.14a1.464 1.464 0 0 0-.683-1.031l-2.323-1.426a1.47 1.47 0 0 0-1.172-.16l-4.484 1.285-.979-3.41 5.954-1.69a1.593 1.593 0 0 1 1.268.173l4.943 3.033c.481.295.81.785.9 1.342l.934 5.736 8.37-.137.377-4.767c.046-.58.33-1.117.785-1.482l4.429-3.552a2.118 2.118 0 0 1 2.263-.246l4.924 2.433 4.38-7.125-3.863-2.91a1.94 1.94 0 0 1-.766-1.376l-.52-5.709a1.589 1.589 0 0 1 .6-1.392l5.475-4.312 2.198 2.786-4.024 3.168a1.464 1.464 0 0 0-.554 1.273l.21 2.5c.035.417.247.799.582 1.05l3.43 2.567z"/>
</svg>
