<svg xmlns="http://www.w3.org/2000/svg" width="143" height="32" viewBox="0 0 143 32">
    <g fill="#fff" fill-rule="evenodd">
        <path fill-rule="nonzero" d="M58.63 26.493c1.332.05 2.59.026 3.752-.068C59.406 29.255 55.324 31 50.82 31c-5.57 0-10.494-2.67-13.48-6.758l-.236-.03c-3.27-.443-5.503-1.58-6-3.342-.497-1.756.821-3.826 3.39-5.808a14.17 14.17 0 0 1 .868-4.016C37.322 5.209 42.887 1 49.447 1c5.28 0 9.915 2.727 12.545 6.834 3.217.451 5.412 1.583 5.905 3.328.498 1.766-.836 3.848-3.432 5.84l-.26.196c-.632.468-1.334.93-2.097 1.382l-.692.397c-2.73 1.52-6.157 2.891-9.979 3.9-3.85 1.016-7.547 1.517-10.713 1.543h-.252c2.586 2.67 6.265 4.34 10.348 4.34 2.886 0 5.57-.834 7.81-2.267zm3.242-10.822c0-4.518-2.466-8.466-6.14-10.6-3.864-2.062-8.721-2.154-12.8.168l-.69.422c-3.16 2.228-5.22 5.881-5.22 10.01 0 2.459.73 4.748 1.988 6.67 3.158.081 7.288-.445 11.677-1.603 4.54-1.198 8.487-2.843 11.173-4.524l.012-.543zm1.216-5.829l.084.176a14.043 14.043 0 0 1 1.223 4.23c.923-.952 1.337-1.862 1.114-2.651-.226-.803-1.087-1.39-2.42-1.755zM33.115 20.145c.241.853 1.199 1.463 2.68 1.821a14.043 14.043 0 0 1-1.257-4.507l-.024-.246c-1.124 1.062-1.642 2.07-1.399 2.932z"/>
        <path d="M0 31.37V.682h2.885v6.243C4.931 2.885 9.233.052 14.688.052c8.184 0 13.64 5.351 13.64 14.112V31.37h-2.99V14.111c0-6.82-4.145-11.278-11.017-11.278-6.4 0-11.33 4.878-11.33 11.33V31.37H0zm79.736 0L69.874.682h3.2l8.34 26.282L91.855.682h2.57l10.124 26.387L113.152.682h3.147L106.122 31.37h-2.833L93.06 5.036 82.57 31.37h-2.833zm51.88.63c-5.245 0-9.652-2.413-12.065-5.718l2.361-1.889c2.046 2.78 5.56 4.932 9.757 4.932 5.56 0 8.34-3.043 8.34-6.453 0-3.987-4.406-4.931-8.917-6.085-4.983-1.207-10.072-2.78-10.072-8.394 0-4.511 4.092-8.393 10.544-8.393 4.354 0 8.289 1.679 10.702 4.459l-2.256 1.836c-2.098-2.36-4.774-3.672-8.446-3.672-4.773 0-7.554 2.466-7.554 5.718 0 3.83 4.197 4.774 8.656 5.928C137.702 15.58 143 17.049 143 22.872c0 4.302-3.515 9.128-11.383 9.128z"/>
    </g>
</svg>
